# xmcd
#
# Track frame offsets:
#	150
#	19370
#	42037
#	59152
#	79425
#	99775
#	117005
#	138912
#	158627
#	179075
#
# Disc length: 2631 seconds
#
# Revision: 0
# Processed by: cddbd v1.4b42PL1 Copyright (c) Steve Scherf et al.
# Submitted via: EasyCDDAExtractor 4.5.0.2
#
DISCID=820a450a
DTITLE=Izel - Bebek
DYEAR=2001
DGENRE=Other
TTITLE0=bebek
TTITLE1=haberin olmaz
TTITLE2=kiyamadim
TTITLE3=geceler kara
TTITLE4=sekerim
TTITLE5=vurmusum
TTITLE6=efendim
TTITLE7=bosver
TTITLE8=cocuk yuzunde
TTITLE9=son arzum
EXTD=
EXTT0=
EXTT1=
EXTT2=
EXTT3=
EXTT4=
EXTT5=
EXTT6=
EXTT7=
EXTT8=
EXTT9=
PLAYORDER=
